<?xml version="1.0" encoding="utf-8"?>
<!-- Generator: Adobe Illustrator 23.0.3, SVG Export Plug-In . SVG Version: 6.00 Build 0)  -->
<svg version="1.1" id="Layer_1" xmlns="http://www.w3.org/2000/svg" xmlns:xlink="http://www.w3.org/1999/xlink" x="0px" y="0px"
	 viewBox="0 0 1200 1200" enable-background="new 0 0 1200 1200" xml:space="preserve">
<g>
	<path fill="#57A848" d="M1100.12,892.913H99.88c-27.548,0-49.88-22.332-49.88-49.88V356.967c0-27.548,22.332-49.879,49.88-49.879
		H1100.12c27.548,0,49.88,22.331,49.88,49.879v486.066C1150,870.581,1127.668,892.913,1100.12,892.913"/>
	<path fill="#CCD592" d="M1064.157,424.588c9.176,0,17.702-2.733,24.857-7.395v363.341c-7.155-4.66-15.681-7.395-24.857-7.395
		c-25.199,0-45.626,20.427-45.626,45.626c0,8.722,2.491,16.843,6.736,23.772h-842.79c2.743-5.863,4.32-12.382,4.32-19.283
		c0-25.199-20.427-45.626-45.626-45.626c-11.589,0-22.136,4.356-30.184,11.474V423.054c5.974,2.87,12.642,4.526,19.713,4.526
		c25.197,0,45.626-20.426,45.626-45.626c0-9.023-2.653-17.409-7.172-24.49h854.765c-3.431,6.407-5.387,13.723-5.387,21.499
		C1018.531,404.161,1038.958,424.588,1064.157,424.588"/>
	<path fill="#57A848" d="M815.413,600c0,118.97-96.444,215.415-215.413,215.415c-118.971,0-215.413-96.445-215.413-215.415
		c0-118.969,96.442-215.412,215.413-215.412C718.969,384.588,815.413,481.031,815.413,600"/>
	<path fill="#CCD592" d="M616.996,735.243c0.085,3.6-2.765,6.586-6.365,6.672l-9.367,0.22c-3.6,0.086-6.586-2.763-6.672-6.363
		l-0.546-23.189c-0.081-3.404-2.765-6.172-6.166-6.335c-16.368-0.796-32.682-5.157-44.16-11.439
		c-2.73-1.496-3.939-4.777-2.958-7.731l3.837-11.567c1.249-3.764,5.547-5.582,9.077-3.778c12.358,6.318,28.225,10.733,44.987,10.337
		c25.246-0.594,41.972-15.579,41.494-35.845c-0.462-19.56-14.615-31.323-41.18-41.371c-36.608-13.365-59.397-29.195-60.126-60.134
		c-0.659-27.975,17.681-50.006,47.348-57.427c2.929-0.733,4.942-3.425,4.87-6.442l-0.567-24.045c-0.084-3.6,2.765-6.588,6.365-6.672
		l9.012-0.212c3.6-0.086,6.586,2.763,6.672,6.363l0.515,21.837c0.08,3.383,2.754,6.143,6.132,6.338
		c15.04,0.863,26.491,4.353,35.348,8.504c3.002,1.408,4.391,4.906,3.29,8.034l-3.98,11.307c-1.269,3.605-5.347,5.382-8.814,3.778
		c-8.41-3.886-21.199-8.234-38.737-7.82c-27.38,0.645-37.307,17.246-36.971,31.472c0.436,18.49,13.812,27.427,45.049,39.497
		c36.979,14.069,55.907,32.125,56.654,63.772c0.631,26.774-16.541,52.354-49.74,60.677c-2.936,0.736-4.964,3.421-4.893,6.448
		L616.996,735.243"/>
	<path fill="#FFFFFF" d="M1109.8,891.974c-3.132,0.616-6.368,0.939-9.681,0.939h0.064
		C1103.476,892.913,1106.691,892.59,1109.8,891.974 M1100.183,307.087H599.943l500.177,0.002c3.708,0,7.32,0.404,10.797,1.172
		C1107.462,307.492,1103.872,307.087,1100.183,307.087"/>
	<path fill="#81BE76" d="M1100.12,307.089c3.708,0,7.32,0.404,10.797,1.172c21.753,4.839,38.005,24.073,38.005,47.062v489.356
		c0,23.381-16.81,42.876-39.121,47.296c-3.132,0.616-6.368,0.939-9.681,0.939H599.943v-50.377h425.324
		c-4.244-6.929-6.736-15.05-6.736-23.772c0-25.199,20.427-45.626,45.626-45.626c9.176,0,17.702,2.735,24.857,7.395V417.192
		c-7.155,4.662-15.681,7.395-24.857,7.395c-25.199,0-45.626-20.427-45.626-45.624c0-7.775,1.956-15.091,5.387-21.499H599.943
		v-50.376H1100.12 M599.943,605.221c25.942,9.968,39.759,21.682,40.215,41.003c0.47,19.922-15.684,34.741-40.215,35.802V605.221
		 M600,384.588c118.969,0,215.413,96.444,215.413,215.412c0,118.97-96.444,215.415-215.413,215.415c-0.022,0-0.036,0-0.057,0
		v-73.382c0.378,0.068,0.767,0.104,1.164,0.104c0.053,0,0.105-0.001,0.159-0.002l9.367-0.22c3.6-0.086,6.449-3.073,6.365-6.672
		l-0.593-25.116c-0.071-3.026,1.957-5.712,4.893-6.448c33.199-8.323,50.37-33.903,49.74-60.677
		c-0.747-31.646-19.675-49.703-56.654-63.772c-5.325-2.058-10.129-4.023-14.44-5.961v-64.541c2.007-0.256,4.126-0.415,6.362-0.467
		c0.781-0.018,1.555-0.027,2.318-0.027c16.353,0,28.384,4.134,36.419,7.847c0.873,0.404,1.785,0.593,2.68,0.593
		c2.662,0,5.184-1.674,6.134-4.371l3.98-11.307c1.101-3.128-0.289-6.626-3.29-8.034c-8.857-4.151-20.308-7.64-35.348-8.504
		c-3.378-0.195-6.052-2.955-6.132-6.338l-0.515-21.837c-0.085-3.546-2.985-6.364-6.513-6.365c-0.053,0-0.105,0.001-0.158,0.002
		l-5.936,0.14v-65.474C599.964,384.588,599.978,384.588,600,384.588"/>
	<path fill="#D9E0AD" d="M1023.918,357.465c-3.431,6.407-5.387,13.723-5.387,21.499c0,25.197,20.427,45.624,45.626,45.624
		c9.176,0,17.702-2.733,24.857-7.395v363.341c-7.155-4.66-15.681-7.395-24.857-7.395c-25.199,0-45.626,20.427-45.626,45.626
		c0,8.722,2.491,16.843,6.736,23.772H599.943v-27.121c0.022,0,0.035,0,0.057,0c118.969,0,215.413-96.445,215.413-215.415
		c0-118.969-96.444-215.412-215.413-215.412c-0.022,0-0.036,0-0.057,0v-27.123H1023.918 M599.943,573.27
		c4.311,1.938,9.115,3.904,14.44,5.961c36.979,14.069,55.907,32.125,56.654,63.772c0.631,26.774-16.541,52.354-49.74,60.677
		c-2.936,0.736-4.964,3.421-4.893,6.448l0.593,25.116c0.085,3.6-2.765,6.586-6.365,6.672l-9.367,0.22
		c-0.053,0.001-0.106,0.002-0.159,0.002c-0.397,0-0.786-0.036-1.164-0.104v-60.006c24.531-1.061,40.685-15.88,40.215-35.802
		c-0.457-19.321-14.274-31.035-40.215-41.003V573.27 M606.038,449.92c3.528,0,6.428,2.818,6.513,6.365l0.515,21.837
		c0.08,3.383,2.754,6.143,6.132,6.338c15.04,0.863,26.491,4.353,35.348,8.504c3.002,1.408,4.391,4.906,3.29,8.034l-3.98,11.307
		c-0.95,2.697-3.472,4.371-6.134,4.371c-0.896,0-1.808-0.19-2.68-0.593c-8.035-3.713-20.066-7.848-36.419-7.847
		c-0.763,0-1.537,0.009-2.318,0.027c-2.236,0.053-4.355,0.212-6.362,0.467v-58.667l5.936-0.14
		C605.932,449.921,605.985,449.92,606.038,449.92"/>
</g>
</svg>
